<svg xmlns="http://www.w3.org/2000/svg" xmlns:xlink="http://www.w3.org/1999/xlink" viewBox="0 0 800 400"><defs><linearGradient id="a" x1="16.58" y1="205.25" x2="316.58" y2="205.25" gradientUnits="userSpaceOnUse"><stop offset="0" stop-color="#007c42"/><stop offset="1" stop-color="#6cce7a"/></linearGradient></defs><title>logo</title><path d="M249.5,353.6a21.7,21.7,0,0,1-11,1.5A284.4,284.4,0,0,1,109,303.3a282,282,0,0,1-90.5-111,21.4,21.4,0,0,1,2.2-21.5,282.7,282.7,0,0,1,258-113.9,21.3,21.3,0,0,1,17.6,13.3,281.7,281.7,0,0,1,17.3,145.5,283.8,283.8,0,0,1-55.3,131.2A22.1,22.1,0,0,1,249.5,353.6Z" fill="url(#a)"/><path d="M249.5,254.6a9.5,9.5,0,0,1-2.3-.5,11.6,11.6,0,0,1-7.1-14.8c3.7-10.2.3-14.9-.8-16.5-9-12.5-39.3-13.7-51.9-13.6-30.9.3-51.7-7.3-61.6-22.5s-6.1-31.4-2.6-39.3a11.6,11.6,0,0,1,21.2,9.3c-.1.4-4,10.2.8,17.4s20.2,12.1,42,12c35.9-.3,59.7,7.6,71,23.3,7.4,10.4,8.8,23.5,3.8,37.6A11.5,11.5,0,0,1,249.5,254.6Z" fill="#fff"/><path d="M157.1,133.4a90.1,90.1,0,0,1,31.9-4.8c24,.7,38.2,8.8,53.2,28.4a11,11,0,0,0,6.2,4,10.9,10.9,0,0,0,11.1-17.2c-23.9-31.2-48.7-36.3-69.9-36.9a109,109,0,0,0-40.4,6.3,10.8,10.8,0,0,0-6.1,14A10.9,10.9,0,0,0,157.1,133.4Z" fill="#fff" opacity="0.7"/><path d="M227.6,261.5a91.5,91.5,0,0,1-31.9,4.7c-24-.7-43.7-11-58.7-30.6a10.9,10.9,0,0,0-17.3,13.2c17.2,22.5,37.8,32.6,55.8,36.7a95.1,95.1,0,0,0,19.6,2.4,112.7,112.7,0,0,0,40.4-6.2,10.8,10.8,0,0,0-7.9-20.2Z" fill="#fff" opacity="0.7"/></svg>
